# 3ds Max Wavefront OBJ Exporter v0.97b - (c)2007 guruware
# 创建的文件:09.04.2017 10:19:34

mtllib dunpai.mtl

#
# object dunpai
#

v  -0.0958 0.0529 1.5087
v  -0.0957 -0.0435 1.5087
v  -0.1767 0.0576 1.5238
v  -0.0000 0.0475 1.5026
v  -0.0000 -0.1214 1.5026
v  -0.1885 0.3265 1.5268
v  -0.0959 0.3263 1.5088
v  -0.0000 0.3260 1.5026
v  -0.0960 0.4008 1.5088
v  -0.0960 0.3687 1.5088
v  -0.1441 0.3684 1.5166
v  -0.1591 0.4008 1.5197
v  -0.0000 0.4012 1.5026
v  -0.0000 0.3694 1.5026
v  -0.0960 0.3387 1.5088
v  -0.1596 0.3385 1.5199
v  -0.0000 0.3387 1.5026
v  -0.1931 0.4091 1.5280
v  -0.0960 0.4089 1.5088
v  -0.0000 0.4086 1.5026
v  -0.0961 0.4656 1.5088
v  -0.1931 0.4786 1.5280
v  -0.0000 0.4595 1.5026
v  0.0958 0.0529 1.5087
v  0.1767 0.0576 1.5238
v  0.0957 -0.0435 1.5087
v  0.0959 0.3263 1.5088
v  0.1885 0.3265 1.5268
v  0.0960 0.4008 1.5088
v  0.1591 0.4008 1.5197
v  0.1441 0.3684 1.5166
v  0.0960 0.3687 1.5088
v  0.0960 0.3387 1.5088
v  0.1596 0.3385 1.5199
v  0.0960 0.4089 1.5088
v  0.1931 0.4091 1.5280
v  0.0961 0.4656 1.5088
v  0.1931 0.4786 1.5280
v  -0.1728 0.0575 1.5444
v  -0.0937 -0.0435 1.5296
v  -0.0931 0.0529 1.5296
v  0.0000 0.0475 1.5236
v  0.0000 -0.1214 1.5236
v  -0.0933 0.3263 1.5296
v  -0.1845 0.3269 1.5474
v  0.0000 0.3260 1.5236
v  -0.1406 0.3684 1.5373
v  -0.0936 0.3687 1.5296
v  -0.0934 0.4007 1.5296
v  -0.1556 0.3968 1.5401
v  0.0000 0.3694 1.5236
v  0.0000 0.4012 1.5236
v  -0.1561 0.3409 1.5404
v  -0.0934 0.3388 1.5296
v  0.0000 0.3387 1.5236
v  -0.0933 0.4089 1.5296
v  -0.1891 0.4087 1.5486
v  0.0000 0.4086 1.5236
v  -0.0932 0.4656 1.5296
v  -0.1891 0.4786 1.5486
v  0.0000 0.4595 1.5236
v  0.0937 -0.0435 1.5296
v  0.1728 0.0575 1.5444
v  0.0932 0.0529 1.5296
v  0.0933 0.3263 1.5296
v  0.1845 0.3269 1.5474
v  0.1406 0.3684 1.5373
v  0.1556 0.3968 1.5401
v  0.0934 0.4007 1.5296
v  0.0936 0.3687 1.5296
v  0.0934 0.3388 1.5296
v  0.1561 0.3409 1.5404
v  0.0933 0.4089 1.5296
v  0.1891 0.4087 1.5486
v  0.1891 0.4786 1.5486
v  0.0932 0.4656 1.5296
# 76 vertices

vn -0.1242 0.0005 -0.9923
vn -0.0919 0.0000 -0.9958
vn -0.1827 0.0019 -0.9832
vn -0.0000 0.0000 -1.0000
vn -0.1870 -0.0205 -0.9822
vn -0.1279 0.0000 -0.9918
vn -0.1218 0.0052 -0.9925
vn -0.1128 0.0000 -0.9936
vn -0.1685 -0.0010 -0.9857
vn -0.1681 0.1960 -0.9661
vn -0.1209 -0.0047 -0.9927
vn -0.1701 -0.1153 -0.9787
vn -0.1922 0.0228 -0.9811
vn -0.1296 0.0000 -0.9916
vn -0.1335 0.0000 -0.9910
vn -0.1942 0.0000 -0.9810
vn 0.1242 0.0005 -0.9923
vn 0.1827 0.0019 -0.9832
vn 0.0919 0.0000 -0.9958
vn 0.1279 0.0000 -0.9918
vn 0.1870 -0.0205 -0.9822
vn 0.1218 0.0052 -0.9925
vn 0.1681 0.1960 -0.9661
vn 0.1685 -0.0010 -0.9857
vn 0.1128 0.0000 -0.9936
vn 0.1209 -0.0047 -0.9927
vn 0.1701 -0.1153 -0.9787
vn 0.1296 0.0000 -0.9916
vn 0.1922 0.0228 -0.9811
vn 0.1335 0.0000 -0.9910
vn 0.1942 0.0000 -0.9810
vn 0.1831 -0.0020 0.9831
vn 0.0921 0.0000 0.9958
vn 0.1243 -0.0006 0.9922
vn 0.0000 0.0001 1.0000
vn 0.0000 0.0000 1.0000
vn 0.1279 0.0000 0.9918
vn 0.1873 0.0217 0.9821
vn 0.1663 0.0029 0.9861
vn 0.1133 0.0000 0.9936
vn 0.1221 -0.0053 0.9925
vn 0.1728 -0.1441 0.9744
vn 0.1723 0.1002 0.9799
vn 0.1212 0.0047 0.9926
vn 0.1294 -0.0001 0.9916
vn 0.1923 -0.0270 0.9810
vn 0.1337 0.0000 0.9910
vn 0.1945 -0.0001 0.9809
vn -0.0921 0.0000 0.9958
vn -0.1831 -0.0020 0.9831
vn -0.1243 -0.0006 0.9922
vn -0.1279 0.0000 0.9918
vn -0.1873 0.0217 0.9821
vn -0.1663 0.0029 0.9861
vn -0.1728 -0.1441 0.9744
vn -0.1221 -0.0053 0.9925
vn -0.1133 0.0000 0.9936
vn -0.1212 0.0047 0.9926
vn -0.1723 0.1002 0.9799
vn -0.1294 -0.0001 0.9916
vn -0.1923 -0.0270 0.9810
vn -0.1945 -0.0001 0.9809
vn -0.1337 0.0000 0.9910
vn -0.7692 -0.6231 0.1417
vn -0.7730 -0.6303 0.0714
vn -0.6358 -0.7696 0.0587
vn -0.6314 -0.7755 0.0000
vn -0.9812 -0.0447 0.1877
vn -0.9822 -0.0451 0.1824
vn -0.8800 -0.4713 0.0598
vn -0.8911 -0.4273 0.1527
vn -0.8541 0.4994 0.1453
vn -0.8780 0.4686 0.0979
vn -0.3246 -0.9449 0.0414
vn -0.2681 -0.9528 -0.1426
vn -0.9810 0.0006 0.1942
vn -0.9813 0.0000 0.1923
vn 0.1310 0.9912 -0.0176
vn 0.1277 0.9915 -0.0253
vn 0.0652 0.9979 -0.0000
vn 0.0628 0.9980 -0.0085
vn -0.4472 0.8940 -0.0268
vn -0.3749 0.9256 0.0520
vn 0.7801 -0.6215 0.0720
vn 0.7622 -0.6319 0.1404
vn 0.6391 -0.7691 -0.0000
vn 0.6281 -0.7760 0.0580
vn 0.9822 -0.0447 0.1824
vn 0.9812 -0.0451 0.1877
vn 0.8681 -0.4736 0.1488
vn 0.9024 -0.4248 0.0729
vn 0.8623 0.4980 0.0917
vn 0.8701 0.4700 0.1481
vn 0.3591 -0.9254 -0.1213
vn 0.2328 -0.9722 0.0228
vn -0.1294 0.9913 -0.0256
vn -0.1293 0.9915 -0.0174
vn 0.9813 0.0006 0.1923
vn 0.9810 0.0000 0.1942
vn -0.0647 0.9979 -0.0087
vn -0.0633 0.9980 0.0000
vn 0.4288 0.9012 0.0627
vn 0.3937 0.9184 -0.0389
# 103 vertex normals

vt 0.4819 0.2940 0.0000
vt 0.4818 0.1346 0.0000
vt 0.6157 0.3018 0.0000
vt 0.3236 0.2850 0.0000
vt 0.3236 0.0059 0.0000
vt 0.6352 0.7462 0.0000
vt 0.4822 0.7457 0.0000
vt 0.3236 0.7453 0.0000
vt 0.4823 0.8690 0.0000
vt 0.4823 0.8159 0.0000
vt 0.5618 0.8154 0.0000
vt 0.5866 0.8690 0.0000
vt 0.3236 0.8696 0.0000
vt 0.3236 0.8171 0.0000
vt 0.4822 0.7663 0.0000
vt 0.5875 0.7661 0.0000
vt 0.3236 0.7663 0.0000
vt 0.6429 0.8829 0.0000
vt 0.4823 0.8823 0.0000
vt 0.3236 0.8818 0.0000
vt 0.4824 0.9761 0.0000
vt 0.6429 0.9977 0.0000
vt 0.3236 0.9660 0.0000
vt 0.1654 0.2940 0.0000
vt 0.0317 0.3018 0.0000
vt 0.1655 0.1346 0.0000
vt 0.1651 0.7457 0.0000
vt 0.0122 0.7462 0.0000
vt 0.1650 0.8690 0.0000
vt 0.0607 0.8690 0.0000
vt 0.0855 0.8154 0.0000
vt 0.1650 0.8159 0.0000
vt 0.1651 0.7663 0.0000
vt 0.0598 0.7661 0.0000
vt 0.1650 0.8823 0.0000
vt 0.0044 0.8829 0.0000
vt 0.1649 0.9761 0.0000
vt 0.0044 0.9977 0.0000
vt 0.6583 0.1891 0.0000
vt 0.6956 0.1414 0.0000
vt 0.6959 0.1869 0.0000
vt 0.7399 0.1843 0.0000
vt 0.7399 0.1047 0.0000
vt 0.6959 0.3158 0.0000
vt 0.6528 0.3162 0.0000
vt 0.7399 0.3157 0.0000
vt 0.6735 0.3357 0.0000
vt 0.6957 0.3359 0.0000
vt 0.6958 0.3510 0.0000
vt 0.6665 0.3491 0.0000
vt 0.7399 0.3362 0.0000
vt 0.7399 0.3512 0.0000
vt 0.6662 0.3228 0.0000
vt 0.6958 0.3217 0.0000
vt 0.7399 0.3217 0.0000
vt 0.6958 0.3548 0.0000
vt 0.6506 0.3547 0.0000
vt 0.7399 0.3547 0.0000
vt 0.6959 0.3816 0.0000
vt 0.6507 0.3877 0.0000
vt 0.7399 0.3787 0.0000
vt 0.7841 0.1414 0.0000
vt 0.8214 0.1891 0.0000
vt 0.7838 0.1869 0.0000
vt 0.7839 0.3158 0.0000
vt 0.8269 0.3162 0.0000
vt 0.8062 0.3357 0.0000
vt 0.8132 0.3491 0.0000
vt 0.7839 0.3510 0.0000
vt 0.7840 0.3359 0.0000
vt 0.7839 0.3217 0.0000
vt 0.8135 0.3228 0.0000
vt 0.7839 0.3548 0.0000
vt 0.8291 0.3547 0.0000
vt 0.8291 0.3877 0.0000
vt 0.7838 0.3816 0.0000
vt 0.9943 0.2550 0.0000
vt 0.9943 0.4557 0.0000
vt 0.9527 0.4557 0.0000
vt 0.9527 0.2550 0.0000
vt 0.9944 0.0993 0.0000
vt 0.9527 0.0993 0.0000
vt 0.9944 0.9960 0.0000
vt 0.9527 0.9958 0.0000
vt 0.9186 0.7128 0.0000
vt 0.9186 0.8233 0.0000
vt 0.8512 0.8226 0.0000
vt 0.8512 0.7127 0.0000
vt 0.9187 0.6072 0.0000
vt 0.8512 0.6069 0.0000
vt 0.9186 0.9449 0.0000
vt 0.8512 0.9444 0.0000
vt 0.7969 0.6138 0.0000
vt 0.7969 0.8742 0.0000
vt 0.7202 0.8742 0.0000
vt 0.7202 0.6156 0.0000
vt 0.9808 0.0583 0.0000
vt 0.8494 0.0583 0.0000
vt 0.8495 0.0298 0.0000
vt 0.9810 0.0298 0.0000
vt 0.7202 0.0583 0.0000
vt 0.7200 0.0298 0.0000
vt 0.9187 0.5017 0.0000
vt 0.8513 0.5017 0.0000
vt 0.5891 0.0583 0.0000
vt 0.4562 0.0583 0.0000
vt 0.4562 0.0298 0.0000
vt 0.5890 0.0298 0.0000
# 108 texture coords

g dunpai
usemtl Material__0
s 1
f 1/1/1 2/2/2 3/3/3 
f 2/2/2 1/1/1 4/4/4 5/5/4 
f 3/3/3 6/6/5 7/7/6 1/1/1 
f 8/8/4 4/4/4 1/1/1 7/7/6 
f 9/9/7 10/10/8 11/11/9 12/12/10 
f 10/10/8 9/9/7 13/13/4 14/14/4 
f 15/15/11 16/16/12 11/11/9 10/10/8 
f 15/15/11 10/10/8 14/14/4 17/17/4 
f 12/12/10 18/18/13 19/19/14 9/9/7 
f 9/9/7 19/19/14 20/20/4 13/13/4 
f 21/21/15 19/19/14 18/18/13 22/22/16 
f 23/23/4 20/20/4 19/19/14 21/21/15 
f 7/7/6 6/6/5 16/16/12 15/15/11 
f 7/7/6 15/15/11 17/17/4 8/8/4 
f 24/24/17 25/25/18 26/26/19 
f 26/26/19 5/5/4 4/4/4 24/24/17 
f 27/27/20 28/28/21 25/25/18 24/24/17 
f 8/8/4 27/27/20 24/24/17 4/4/4 
f 29/29/22 30/30/23 31/31/24 32/32/25 
f 13/13/4 29/29/22 32/32/25 14/14/4 
f 33/33/26 32/32/25 31/31/24 34/34/27 
f 14/14/4 32/32/25 33/33/26 17/17/4 
f 35/35/28 36/36/29 30/30/23 29/29/22 
f 20/20/4 35/35/28 29/29/22 13/13/4 
f 37/37/30 38/38/31 36/36/29 35/35/28 
f 23/23/4 37/37/30 35/35/28 20/20/4 
f 34/34/27 28/28/21 27/27/20 33/33/26 
f 17/17/4 33/33/26 27/27/20 8/8/4 
f 39/39/32 40/40/33 41/41/34 
f 42/42/35 41/41/34 40/40/33 43/43/36 
f 39/39/32 41/41/34 44/44/37 45/45/38 
f 41/41/34 42/42/35 46/46/36 44/44/37 
f 47/47/39 48/48/40 49/49/41 50/50/42 
f 49/49/41 48/48/40 51/51/36 52/52/36 
f 47/47/39 53/53/43 54/54/44 48/48/40 
f 54/54/44 55/55/36 51/51/36 48/48/40 
f 50/50/42 49/49/41 56/56/45 57/57/46 
f 49/49/41 52/52/36 58/58/36 56/56/45 
f 57/57/46 56/56/45 59/59/47 60/60/48 
f 56/56/45 58/58/36 61/61/36 59/59/47 
f 44/44/37 54/54/44 53/53/43 45/45/38 
f 44/44/37 46/46/36 55/55/36 54/54/44 
f 62/62/49 63/63/50 64/64/51 
f 42/42/35 43/43/36 62/62/49 64/64/51 
f 65/65/52 64/64/51 63/63/50 66/66/53 
f 64/64/51 65/65/52 46/46/36 42/42/35 
f 67/67/54 68/68/55 69/69/56 70/70/57 
f 69/69/56 52/52/36 51/51/36 70/70/57 
f 67/67/54 70/70/57 71/71/58 72/72/59 
f 51/51/36 55/55/36 71/71/58 70/70/57 
f 73/73/60 69/69/56 68/68/55 74/74/61 
f 58/58/36 52/52/36 69/69/56 73/73/60 
f 74/74/61 75/75/62 76/76/63 73/73/60 
f 73/73/60 76/76/63 61/61/36 58/58/36 
f 72/72/59 71/71/58 65/65/52 66/66/53 
f 55/55/36 46/46/36 65/65/52 71/71/58 
s 2
f 40/77/64 39/78/64 3/79/64 
f 3/79/65 2/80/65 40/77/65 
f 43/81/66 40/77/66 2/80/66 
f 2/80/67 5/82/67 43/81/67 
f 39/78/68 45/83/68 6/84/68 
f 6/84/69 3/79/69 39/78/69 
f 47/85/70 50/86/70 12/87/70 
f 12/87/71 11/88/71 47/85/71 
s 4
f 53/89/72 47/85/72 11/88/72 
f 11/88/73 16/90/73 53/89/73 
f 50/86/74 57/91/74 18/92/74 
f 18/92/75 12/87/75 50/86/75 
s 2
f 57/93/76 60/94/76 22/95/76 
f 22/95/77 18/96/77 57/93/77 
s 4
f 60/97/78 59/98/78 21/99/78 
f 21/99/79 22/100/79 60/97/79 
f 59/98/80 61/101/80 23/102/80 
f 23/102/81 21/99/81 59/98/81 
f 45/103/82 53/89/82 16/90/82 
f 16/90/83 6/104/83 45/103/83 
f 63/78/84 62/77/84 26/80/84 
f 26/80/85 25/79/85 63/78/85 
f 62/77/86 43/81/86 5/82/86 
f 5/82/87 26/80/87 62/77/87 
f 66/83/88 63/78/88 25/79/88 
f 25/79/89 28/84/89 66/83/89 
s 2
f 68/86/90 67/85/90 31/88/90 
f 31/88/91 30/87/91 68/86/91 
s 8
f 67/85/92 72/89/92 34/90/92 
f 34/90/93 31/88/93 67/85/93 
s 2
f 74/91/94 68/86/94 30/87/94 
f 30/87/95 36/92/95 74/91/95 
s 4
f 76/105/96 75/106/96 38/107/96 
f 38/107/97 37/108/97 76/105/97 
s 8
f 75/94/98 74/93/98 36/96/98 
f 36/96/99 38/95/99 75/94/99 
s 4
f 61/101/100 76/105/100 37/108/100 
f 37/108/101 23/102/101 61/101/101 
s 8
f 72/89/102 66/103/102 28/104/102 
f 28/104/103 34/90/103 72/89/103 
# 52 polygons - 44 triangles

